<?xml version="1.0" encoding="UTF-8"?> <svg xmlns="http://www.w3.org/2000/svg" width="324" height="323" viewBox="0 0 324 323"><g><g><g><g><path fill="#41a8e0" d="M95.629 156.358a69.057 69.057 0 0 1 22.456-46.765L71.694 53.769a141.498 141.498 0 0 0-48.677 102.589z"></path></g><g><path fill="#8fc03c" d="M124.396 104.477c24.06-17.246 56.419-17.3 80.536-.134l46.937-55.466c-51.105-39.78-122.667-39.884-173.887-.254z"></path></g><g><path fill="#fec901" d="M211.265 109.443a69.102 69.102 0 0 1 22.62 46.915h72.605a141.445 141.445 0 0 0-48.355-102.313z"></path></g><g><path fill="#eb5c29" d="M206.388 216.147a68.953 68.953 0 0 1-41.634 13.906c-3.036 0-6.062-.197-9.066-.59l-13.637 71.313a143.06 143.06 0 0 0 22.703 1.815 141.192 141.192 0 0 0 86.853-29.708z"></path></g><g><path fill="#f1881b" d="M233.93 164.483a69.102 69.102 0 0 1-21.343 46.407l45.301 56.832a141.498 141.498 0 0 0 48.632-103.239z"></path></g><g><path fill="#e5221d" d="M147.719 227.94c-29.399-7.471-50.524-33.19-52.142-63.48h-72.59c1.695 66.16 48.707 121.021 111.08 134.792z"></path></g><g><path fill="#1d1d1b" d="M137.308 164.498c0 1.807-1.277 2.711-3.838 2.711h-7.005v-5.43h7.005c2.569 0 3.846.904 3.846 2.72zm-5.414-15.541c2.532 0 3.801.859 3.801 2.562 0 1.712-1.267 2.569-3.801 2.569h-5.43v-5.131zm15.481 11.643a10.395 10.395 0 0 0-4.72-3.309 8.633 8.633 0 0 0 3.578-3.106 7.976 7.976 0 0 0 1.21-4.34 7.647 7.647 0 0 0-3.533-6.564c-2.365-1.643-5.85-2.464-10.455-2.464h-18.446v34.532h19.454c4.745.005 8.362-.826 10.851-2.494a7.954 7.954 0 0 0 3.734-7.028 8.282 8.282 0 0 0-1.673-5.227z"></path></g><g><path fill="#1d1d1b" d="M183.976 175.35l-.097-15.736-7.468 12.629h-5.13l-7.468-12.091v15.197h-10.605v-34.532h9.567l11.246 18.401 10.949-18.401h9.574l.097 34.532z"></path></g><g><path fill="#1d1d1b" d="M200.205 140.817h11.642v34.532h-11.642z"></path></g><g><path fill="#1d1d1b" d="M126.748.305v9.887h-3.338v-7.37h-1.68V.304z"></path></g><g><path fill="#1d1d1b" d="M132.364 2.35a.747.747 0 0 1 .568.225.844.844 0 0 1 .224.62.829.829 0 0 1-.224.62.747.747 0 0 1-.59.209.747.747 0 0 1-.575-.232.859.859 0 0 1-.217-.62.866.866 0 0 1 .217-.62.747.747 0 0 1 .597-.201zm.762 5.542a1.225 1.225 0 0 1-1.568 0 .978.978 0 0 1-.306-.747.97.97 0 0 1 .306-.746 1.225 1.225 0 0 1 1.568 0 .963.963 0 0 1 .299.746.97.97 0 0 1-.299.747zm3.301-1.941a2.987 2.987 0 0 0-.978-.934c.619-.455.98-1.18.97-1.95a2.48 2.48 0 0 0-.5-1.59 3.338 3.338 0 0 0-1.456-1.03 5.66 5.66 0 0 0-2.12-.366 5.728 5.728 0 0 0-2.13.366 3.383 3.383 0 0 0-1.44 1.068 2.48 2.48 0 0 0-.516 1.553 2.39 2.39 0 0 0 .978 1.912c-.4.242-.737.574-.985.97a2.457 2.457 0 0 0-.344 1.307c-.01.603.188 1.191.56 1.666.409.51.952.895 1.568 1.113a7.05 7.05 0 0 0 4.616 0 3.585 3.585 0 0 0 1.568-1.113c.372-.475.57-1.063.56-1.666a2.464 2.464 0 0 0-.35-1.306z"></path></g><g><path fill="#1d1d1b" d="M140.759 7.183c.354.343.544.821.522 1.314.002.252-.03.504-.097.747a7.424 7.424 0 0 1-.455 1.113l-.986 2.106h-1.98l.71-2.39a1.546 1.546 0 0 1-.68-.612 1.785 1.785 0 0 1-.238-.956 1.725 1.725 0 0 1 .523-1.315 2.069 2.069 0 0 1 2.68 0z"></path></g><g><path fill="#1d1d1b" d="M149.07 4.666a2.883 2.883 0 0 1 .986 2.278 3.152 3.152 0 0 1-.493 1.717 3.405 3.405 0 0 1-1.493 1.27 5.795 5.795 0 0 1-2.532.493c-.7 0-1.4-.077-2.083-.232a6.355 6.355 0 0 1-1.815-.664l1.135-2.457c.409.238.849.42 1.307.537.432.123.88.186 1.33.187a1.83 1.83 0 0 0 .94-.209.62.62 0 0 0 .359-.568.568.568 0 0 0-.321-.53 2.658 2.658 0 0 0-1.173-.179h-2.875l.493-5.974h6.572V2.82h-3.831l-.068.994h.508a4.48 4.48 0 0 1 3.055.851z"></path></g><g><path fill="#1d1d1b" d="M155.18 4.912h4.241V7.31h-4.242z"></path></g><g><path fill="#1d1d1b" d="M172.61 7.608v2.584h-7.924V8.146l3.578-3.308c.246-.214.455-.466.62-.747.098-.187.152-.394.156-.605a.747.747 0 0 0-.246-.575 1.105 1.105 0 0 0-.747-.202c-.298.001-.59.084-.844.24a1.494 1.494 0 0 0-.605.679l-2.517-1.262a4.138 4.138 0 0 1 1.71-1.673 5.907 5.907 0 0 1 4.706-.231c.555.234 1.034.62 1.381 1.112.342.47.52 1.04.508 1.62a3.435 3.435 0 0 1-.344 1.532 5.72 5.72 0 0 1-1.351 1.62l-1.412 1.285z"></path></g><g><path fill="#1d1d1b" d="M182.886 8.497h-1.314v1.695h-3.234V8.497h-5.13V6.384l4.197-6.08h3.412l-3.734 5.61h1.345V4.42h3.136v1.493h1.315z"></path></g><g><path fill="#1d1d1b" d="M186.702 7.183c.354.343.545.821.523 1.314.002.252-.031.504-.097.747a7.424 7.424 0 0 1-.456 1.113l-.985 2.106h-1.972l.71-2.39a1.546 1.546 0 0 1-.68-.612 1.852 1.852 0 0 1-.24-.956 1.725 1.725 0 0 1 .524-1.315 2.069 2.069 0 0 1 2.68 0z"></path></g><g><path fill="#1d1d1b" d="M191.93 4.405a.993.993 0 0 1-.747-.277 1 1 0 0 1-.284-.746.978.978 0 0 1 .284-.747c.202-.187.472-.285.747-.27.275-.011.543.085.747.27.194.198.295.47.276.747a1 1 0 0 1-.276.746c-.202.19-.471.29-.747.277zm2.24-3.772a5.384 5.384 0 0 0-2.472-.552 4.787 4.787 0 0 0-2.008.425 3.473 3.473 0 0 0-1.494 1.21 3.166 3.166 0 0 0-.493 1.837c-.012.586.15 1.163.463 1.658.308.477.739.861 1.247 1.113.52.264 1.097.4 1.68.396a3.278 3.278 0 0 0 1.965-.553 2.061 2.061 0 0 1-.747 1.255 2.24 2.24 0 0 1-1.42.425 2.987 2.987 0 0 1-1.791-.522l-1.203 2.337c.425.262.889.454 1.374.568.555.14 1.124.21 1.696.209a6.064 6.064 0 0 0 2.867-.65 4.578 4.578 0 0 0 1.897-1.912 5.975 5.975 0 0 0 .68-2.935 5.504 5.504 0 0 0-.583-2.673A3.891 3.891 0 0 0 194.17.633z"></path></g><g><path fill="#1d1d1b" d="M202.034 4.128a1.12 1.12 0 0 1-1.493 0 1 1 0 0 1-.284-.746.978.978 0 0 1 .284-.747 1.143 1.143 0 0 1 1.493 0c.197.197.3.469.284.747a1 1 0 0 1-.284.746zm1.494-3.495a5.385 5.385 0 0 0-2.494-.552 4.78 4.78 0 0 0-2.032.425 3.45 3.45 0 0 0-1.434 1.225 3.219 3.219 0 0 0-.53 1.822c-.01.586.152 1.162.463 1.658.31.475.74.859 1.247 1.113.521.264 1.097.4 1.68.396a3.279 3.279 0 0 0 1.965-.553 2.031 2.031 0 0 1-.747 1.255 2.24 2.24 0 0 1-1.419.425 2.987 2.987 0 0 1-1.792-.522l-1.203 2.337c.426.26.89.452 1.374.568.555.139 1.124.21 1.696.209a6.116 6.116 0 0 0 2.875-.65 4.608 4.608 0 0 0 1.92-1.912 5.975 5.975 0 0 0 .686-2.935 5.504 5.504 0 0 0-.597-2.673 3.89 3.89 0 0 0-1.658-1.636z"></path></g><g><path fill="#1d1d1b" d="M289.142 69.138l-2.315 1.143-3.547-7.088 1.837-.91L289.672 64c.3.123.618.196.941.217.211.004.42-.04.613-.127a.687.687 0 0 0 .403-.478c.05-.257.002-.524-.134-.747a1.59 1.59 0 0 0-1.472-.889v-2.793a4.145 4.145 0 0 1 2.24.747 5.227 5.227 0 0 1 1.726 2.076c.329.629.53 1.317.59 2.024.057.61-.06 1.223-.336 1.77-.27.516-.7.93-1.225 1.18a3.42 3.42 0 0 1-1.494.373 5.728 5.728 0 0 1-2.053-.478l-1.778-.694z"></path></g><g><path fill="#1d1d1b" d="M295.251 74.762a2.905 2.905 0 0 1-1.606 1.896 3.152 3.152 0 0 1-1.747.329 3.45 3.45 0 0 1-1.815-.747 5.848 5.848 0 0 1-1.56-2.046 9.388 9.388 0 0 1-.748-1.964 6.31 6.31 0 0 1-.216-1.92l2.703-.089c-.029.473.006.948.105 1.411.085.444.231.874.433 1.277.132.296.338.553.597.747.195.153.46.18.68.067a.567.567 0 0 0 .321-.53 2.59 2.59 0 0 0-.366-1.127l-1.277-2.562 5.586-2.24 2.943 5.87-2.24 1.127-1.718-3.428-.904.374.232.455a4.54 4.54 0 0 1 .597 3.1z"></path></g><g><path fill="#1d1d1b" d="M297.23 79.907l3.159 6.318-1.643.822-3.166-6.311z"></path></g><g><path fill="#1d1d1b" d="M303.84 98.54l-2.316 1.15-3.547-7.087 1.83-.911 4.555 1.717c.302.126.622.2.949.217.211.004.421-.042.612-.134.2-.086.349-.26.403-.471a1.105 1.105 0 0 0-.142-.747 1.59 1.59 0 0 0-.59-.65 1.546 1.546 0 0 0-.88-.238V88.57a4.167 4.167 0 0 1 2.24.747 5.862 5.862 0 0 1 2.307 4.1 3.241 3.241 0 0 1-.336 1.755 2.756 2.756 0 0 1-1.225 1.18 3.48 3.48 0 0 1-1.493.373 5.579 5.579 0 0 1-2.047-.485l-1.784-.687z"></path></g><g><path fill="#1d1d1b" d="M309.373 101.818a1.008 1.008 0 0 1-.538-.515.993.993 0 0 1-.082-.747c.093-.259.287-.469.538-.582a.949.949 0 0 1 .747-.075c.255.094.46.289.567.538.124.228.156.495.09.747-.211.522-.778.804-1.322.657zm3.167-2.643a4.87 4.87 0 0 0-1.292-1.636 3.368 3.368 0 0 0-1.733-.747 3.196 3.196 0 0 0-1.867.336 3.04 3.04 0 0 0-1.27 1.158 3.189 3.189 0 0 0-.44 1.613c-.006.584.13 1.16.396 1.68.291.63.772 1.151 1.374 1.494a2.046 2.046 0 0 1-1.442-.09 2.278 2.278 0 0 1-1.023-1.075 3.07 3.07 0 0 1-.336-1.845h-2.621a4.48 4.48 0 0 0 .105 1.494 6.48 6.48 0 0 0 .575 1.606 5.974 5.974 0 0 0 1.867 2.277 4.57 4.57 0 0 0 2.546.874 5.974 5.974 0 0 0 2.935-.702 5.437 5.437 0 0 0 2.121-1.725c.478-.65.74-1.434.747-2.24a5.265 5.265 0 0 0-.642-2.472z"></path></g><g><path fill="#1d1d1b" d="M309.978 109.862c-.148.47-.49.853-.94 1.053a2.794 2.794 0 0 1-.703.246c-.398.06-.8.09-1.202.09l-2.323.06-.859-1.763 2.45-.433c-.012-.313.074-.62.246-.881a1.77 1.77 0 0 1 .747-.643c.429-.24.94-.284 1.404-.12A2.061 2.061 0 0 1 310 109.87z"></path></g><g><path fill="#1d1d1b" d="M315.37 113.82a.993.993 0 0 1-.575-.56 1.038 1.038 0 0 1-.082-.785c.093-.259.287-.469.538-.582a.986.986 0 0 1 .784-.075c.509.22.786.775.657 1.315a.978.978 0 0 1-.53.582.993.993 0 0 1-.792.075zm3.816-.224a5.377 5.377 0 0 0-.635-2.45 4.861 4.861 0 0 0-1.292-1.628 3.405 3.405 0 0 0-1.732-.747 3.136 3.136 0 0 0-1.867.344c-.526.237-.97.624-1.277 1.113a3.136 3.136 0 0 0-.44 1.613c-.007.584.129 1.16.395 1.68.287.63.765 1.152 1.367 1.494-.475.15-.989.117-1.442-.09a2.24 2.24 0 0 1-1.023-1.075 2.988 2.988 0 0 1-.328-1.838h-2.622c-.051.5-.018 1.005.097 1.494.127.556.32 1.095.575 1.606a6.169 6.169 0 0 0 1.867 2.285 4.623 4.623 0 0 0 2.554.866 5.974 5.974 0 0 0 2.935-.702 5.488 5.488 0 0 0 2.121-1.725 3.913 3.913 0 0 0 .747-2.24z"></path></g><g><path fill="#1d1d1b" d="M319.552 122.176a1.008 1.008 0 0 1-.53-.567.963.963 0 0 1-.082-.747.97.97 0 0 1 .53-.59.986.986 0 0 1 .747-.075c.509.22.786.775.657 1.315a.963.963 0 0 1-.53.582.986.986 0 0 1-.784.082zm3.816-.194a5.406 5.406 0 0 0-.642-2.487 4.773 4.773 0 0 0-1.292-1.628 3.465 3.465 0 0 0-1.732-.746 3.256 3.256 0 0 0-1.867.343 2.987 2.987 0 0 0-1.27 1.158 3.114 3.114 0 0 0-.44 1.613 3.6 3.6 0 0 0 .395 1.673c.29.63.771 1.152 1.374 1.493a2.024 2.024 0 0 1-1.449-.097 2.24 2.24 0 0 1-1.015-1.075 2.935 2.935 0 0 1-.336-1.837h-2.622c-.048.5-.015 1.004.097 1.493a7.02 7.02 0 0 0 .576 1.606 6.169 6.169 0 0 0 1.867 2.285 4.57 4.57 0 0 0 2.554.874 6.05 6.05 0 0 0 2.935-.702 5.489 5.489 0 0 0 2.12-1.725 3.89 3.89 0 0 0 .747-2.24z"></path></g><g><path fill="#1d1d1b" d="M288.268 258.611c.637-.133 1.301-.03 1.867.291.52.275.95.692 1.24 1.203a3.48 3.48 0 0 1 .403 1.919 5.84 5.84 0 0 1-.746 2.457c-.33.62-.722 1.203-1.173 1.74-.411.5-.894.935-1.434 1.292l-1.65-2.143c.402-.25.77-.555 1.09-.904.31-.336.576-.71.792-1.113.162-.279.25-.595.254-.918a.605.605 0 0 0-.329-.575c-.403-.21-.747 0-1.15.746l-.613 1.158-1.814-.948-.628-1.987-1.65 3.13-2.24-1.173 3.442-6.527 1.815.955.792 2.495a3.233 3.233 0 0 1 1.732-1.098z"></path></g><g><path fill="#1d1d1b" d="M293.205 254.616c-.351.664-1.27.62-2.741-.165-1.471-.784-2.031-1.493-1.68-2.165.35-.673 1.24-.583 2.733.164 1.479.799 2.039 1.5 1.688 2.166zm.732 3.017a4.406 4.406 0 0 0 1.628-1.763 4.324 4.324 0 0 0 .537-2.345 4.13 4.13 0 0 0-.829-2.24 6.968 6.968 0 0 0-4.914-2.592 4.16 4.16 0 0 0-2.315.568 4.69 4.69 0 0 0-2.165 4.107 4.16 4.16 0 0 0 .836 2.24c.58.762 1.33 1.377 2.188 1.8a6.295 6.295 0 0 0 2.718.792 4.22 4.22 0 0 0 2.316-.567z"></path></g><g><path fill="#1d1d1b" d="M295.199 245.348l3.3-6.244 1.621.86-3.293 6.243z"></path></g><g><path fill="#1d1d1b" d="M304.123 228.552a2.68 2.68 0 0 1 1.867.291c.52.275.95.692 1.24 1.203.312.589.452 1.254.403 1.919a5.975 5.975 0 0 1-.747 2.457c-.328.62-.721 1.203-1.172 1.74-.411.5-.895.935-1.434 1.292l-1.658-2.129c.4-.253.765-.56 1.083-.91a5.13 5.13 0 0 0 .791-1.106c.164-.279.254-.595.262-.918a.627.627 0 0 0-.336-.576c-.396-.209-.747 0-1.143.747l-.612 1.158-1.815-.956-.635-1.98-1.643 3.13-2.24-1.172 3.443-6.528 1.807.956.792 2.495a3.226 3.226 0 0 1 1.747-1.113z"></path></g><g><path fill="#1d1d1b" d="M312.114 220.39l-.612 1.164 1.493.784-1.493 2.868-1.494-.791-2.39 4.533-1.874-.986-3.413-6.55 1.59-3.024 3.227 5.915.62-1.188-1.337-.702 1.493-2.77 1.337.702.62-1.165z"></path></g><g><path fill="#1d1d1b" d="M312.734 216.386c.47-.154.984-.1 1.411.15.219.112.42.256.598.425.273.289.523.598.747.927l1.404 1.852-.926 1.747-1.778-1.732a1.673 1.673 0 0 1-.866.313 1.83 1.83 0 0 1-.949-.239 1.74 1.74 0 0 1-.926-1.075 2.076 2.076 0 0 1 1.255-2.368z"></path></g><g><path fill="#1d1d1b" d="M312.838 209.665c.12.543-.17 1.093-.687 1.3a1.105 1.105 0 0 1-1.307-.687c-.06-.254-.022-.52.105-.747.116-.245.326-.434.582-.523.251-.073.52-.04.747.09.252.117.444.333.53.597zm-2.412-2.957a5.363 5.363 0 0 0-1.62 1.971 4.862 4.862 0 0 0-.575 1.994 3.45 3.45 0 0 0 .403 1.852c.31.569.787 1.028 1.367 1.315.509.283 1.092.408 1.672.358a3.062 3.062 0 0 0 1.569-.575 3.675 3.675 0 0 0 1.135-1.3 3.3 3.3 0 0 0 .433-1.993c.39.304.654.74.747 1.225a2.24 2.24 0 0 1-.284 1.456 2.988 2.988 0 0 1-1.292 1.344l1.494 2.15a4.81 4.81 0 0 0 1.142-.948c.382-.425.708-.897.971-1.404.478-.873.734-1.85.747-2.845a4.645 4.645 0 0 0-.747-2.584 5.974 5.974 0 0 0-2.285-1.971 5.459 5.459 0 0 0-2.636-.747 3.876 3.876 0 0 0-2.24.702z"></path></g><g><path fill="#1d1d1b" d="M317.125 201.435a1.105 1.105 0 0 1-.687 1.3.964.964 0 0 1-.747-.097.926.926 0 0 1-.515-.59 1.143 1.143 0 0 1 .68-1.3.964.964 0 0 1 .784.097c.249.115.439.33.522.59zm-2.337-2.987a5.415 5.415 0 0 0-1.614 1.927 4.758 4.758 0 0 0-.575 2.001c-.042.64.095 1.279.396 1.845.314.567.79 1.027 1.367 1.322.515.276 1.097.4 1.68.358a3.197 3.197 0 0 0 1.569-.582 3.734 3.734 0 0 0 1.135-1.3 3.346 3.346 0 0 0 .425-1.994c.391.303.657.739.747 1.225.07.504-.03 1.016-.284 1.456a2.988 2.988 0 0 1-1.307 1.39l1.494 2.15c.432-.249.818-.57 1.143-.948.383-.426.711-.898.978-1.404.478-.873.735-1.85.747-2.846a4.6 4.6 0 0 0-.747-2.584 5.975 5.975 0 0 0-2.278-1.971 5.564 5.564 0 0 0-2.636-.747c-.8 0-1.582.246-2.24.702z"></path></g><g><path fill="#1d1d1b" d="M183.043 316.474c.542.347.942.877 1.128 1.493a3.106 3.106 0 0 1 0 1.733 3.473 3.473 0 0 1-1.06 1.643 5.975 5.975 0 0 1-2.241 1.217c-.669.209-1.357.346-2.054.411a6.78 6.78 0 0 1-1.934-.09l.343-2.688c.463.104.938.144 1.412.12a5.378 5.378 0 0 0 1.337-.225c.311-.083.597-.245.828-.47a.612.612 0 0 0 .172-.642c-.134-.434-.575-.53-1.322-.3l-1.254.397-.613-1.957.941-1.852-3.368 1.06-.747-2.397 7.035-2.24.613 1.949-1.188 2.33a3.189 3.189 0 0 1 1.972.508z"></path></g><g><path fill="#1d1d1b" d="M190.81 313.427a2.875 2.875 0 0 1 1.62 1.882c.185.575.203 1.192.053 1.777a3.465 3.465 0 0 1-1.06 1.666 5.705 5.705 0 0 1-2.241 1.224c-.669.209-1.357.346-2.054.411a6.783 6.783 0 0 1-1.934-.09l.343-2.688c.461.102.933.144 1.404.127a4.998 4.998 0 0 0 1.33-.232 1.83 1.83 0 0 0 .836-.47.642.642 0 0 0 .172-.657.575.575 0 0 0-.47-.411c-.4-.024-.8.04-1.173.187l-2.734.858-1.329-5.877 6.266-1.964.747 2.397-3.652 1.143.224.956.485-.157a4.54 4.54 0 0 1 3.167-.082z"></path></g><g><path fill="#1d1d1b" d="M196.187 312.284l6.721-2.113.545 1.755-6.721 2.113z"></path></g><g><path fill="#1d1d1b" d="M214.334 306.63c.54.35.937.88 1.12 1.495.182.558.195 1.158.038 1.725a3.458 3.458 0 0 1-1.06 1.65 5.877 5.877 0 0 1-2.241 1.21 9.54 9.54 0 0 1-2.054.41c-.645.07-1.298.04-1.934-.089l.343-2.681c.46.104.933.144 1.404.12a5.055 5.055 0 0 0 1.345-.232c.312-.078.598-.238.829-.463a.62.62 0 0 0 .171-.65c-.134-.425-.575-.53-1.321-.291l-1.255.388-.612-1.949.94-1.852-3.368 1.06-.746-2.404 7.035-2.24.612 1.956-1.187 2.33a3.241 3.241 0 0 1 1.941.508z"></path></g><g><path fill="#1d1d1b" d="M219.83 303.74c-.29.48-.891.669-1.403.441a.986.986 0 0 1-.486-.62.964.964 0 0 1 .045-.791c.303-.464.891-.649 1.404-.44.48.292.67.896.44 1.41zm.419-3.793a5.229 5.229 0 0 0-2.494.216 4.78 4.78 0 0 0-1.815 1.009c-.482.426-.834.98-1.016 1.598a3.226 3.226 0 0 0 0 1.897c.167.56.494 1.058.941 1.434.428.359.943.598 1.494.694a3.673 3.673 0 0 0 1.725-.127 3.361 3.361 0 0 0 1.703-1.113c.07.494-.044.997-.321 1.412a2.24 2.24 0 0 1-1.225.836 2.987 2.987 0 0 1-1.867.038l-.448 2.584c.487.125.991.17 1.493.134a6.78 6.78 0 0 0 1.68-.314 6.108 6.108 0 0 0 2.547-1.493 4.615 4.615 0 0 0 1.27-2.383c.178-.999.098-2.027-.232-2.987a5.407 5.407 0 0 0-1.366-2.367 3.846 3.846 0 0 0-2.07-1.068z"></path></g><g><path fill="#1d1d1b" d="M227.874 304.42c.443.22.77.62.896 1.098.075.242.118.493.127.747a8.033 8.033 0 0 1-.097 1.202l-.314 2.308-1.89.59-.036-2.487c-.31-.046-.601-.181-.837-.388a1.747 1.747 0 0 1-.508-.837 1.71 1.71 0 0 1 .105-1.411 1.86 1.86 0 0 1 1.128-.874c.464-.168.975-.15 1.426.052z"></path></g><g><path fill="#1d1d1b" d="M232.041 300.216c-.257.091-.54.075-.784-.045a.956.956 0 0 1-.493-.62.97.97 0 0 1 .052-.762c.137-.237.363-.41.628-.478.24-.094.506-.094.746 0 .489.284.68.893.441 1.404a.993.993 0 0 1-.59.5zm1.008-4.294a5.429 5.429 0 0 0-2.539.216 4.795 4.795 0 0 0-1.815 1.016 3.376 3.376 0 0 0-1.015 1.59 3.174 3.174 0 0 0 .044 1.897c.167.56.494 1.059.942 1.434.427.36.942.6 1.493.695a3.675 3.675 0 0 0 1.725-.127 3.278 3.278 0 0 0 1.703-1.113c.074.493-.038.996-.314 1.412a2.24 2.24 0 0 1-1.224.836 2.987 2.987 0 0 1-1.868.037l-.448 2.584c.488.126.992.172 1.494.135a6.778 6.778 0 0 0 1.68-.314 6.161 6.161 0 0 0 2.547-1.493 4.63 4.63 0 0 0 1.262-2.383c.178-.999.1-2.026-.224-2.987a5.601 5.601 0 0 0-1.367-2.367 3.95 3.95 0 0 0-2.076-1.068z"></path></g><g><path fill="#1d1d1b" d="M241.54 296.915a.986.986 0 0 1-.612.485c-.257.092-.54.076-.784-.045a1.113 1.113 0 0 1-.44-1.404 1.135 1.135 0 0 1 1.403-.44c.488.283.68.892.44 1.404zm.426-3.794a5.422 5.422 0 0 0-2.494.217 4.794 4.794 0 0 0-1.815 1.015 3.45 3.45 0 0 0-1.016 1.591 3.226 3.226 0 0 0 0 1.897c.166.562.493 1.064.941 1.441a3.16 3.16 0 0 0 1.494.687c.577.1 1.17.056 1.725-.127a3.233 3.233 0 0 0 1.703-1.112c.074.493-.038.996-.314 1.411a2.24 2.24 0 0 1-1.225.837 3.047 3.047 0 0 1-1.874.037l-.448 2.584c.486.13.992.175 1.493.134a6.664 6.664 0 0 0 1.68-.313 5.974 5.974 0 0 0 2.547-1.494 4.585 4.585 0 0 0 1.27-2.382c.178-1 .098-2.028-.232-2.988a5.496 5.496 0 0 0-1.366-2.367 3.898 3.898 0 0 0-2.069-1.068z"></path></g><g><path fill="#1d1d1b" d="M20.014 231.031l-.784-.933 1.778-1.494.799.911c.251.266.4.613.418.979a1.255 1.255 0 0 1-1.314 1.097 1.494 1.494 0 0 1-.897-.56zm5.071-.858a5.974 5.974 0 0 0-1.195-2.121L20.83 224.4l-7.58 6.355 2.143 2.554 1.86-1.56.918 1.09a5.93 5.93 0 0 0 1.882 1.546 3.547 3.547 0 0 0 2.001.365 3.854 3.854 0 0 0 3.032-2.539 3.577 3.577 0 0 0 0-2.038z"></path></g><g><path fill="#1d1d1b" d="M25.153 240.673a1.173 1.173 0 0 1-.874-.411 1.15 1.15 0 0 1-.27-.956c.082-.398.308-.753.636-.993a1.59 1.59 0 0 1 1.068-.463 1.217 1.217 0 0 1 1.157 1.381 1.964 1.964 0 0 1-1.717 1.442zm-2.786 1.165a5.227 5.227 0 0 0 1.89 1.449c.665.295 1.399.4 2.12.306a3.936 3.936 0 0 0 3.234-4.795 5.571 5.571 0 0 0-2.987-3.555 3.869 3.869 0 0 0-2.114-.313 3.95 3.95 0 0 0-3.174 2.658 4.003 4.003 0 0 0-.067 2.144c.195.778.571 1.5 1.098 2.106z"></path></g><g><path fill="#1d1d1b" d="M40.253 250.934l-7.647 2.905-1.987-2.382 1.987-3.197-3.518 1.367-2.009-2.353 4.197-7.02 1.942 2.316-2.24 3.637 4.017-1.561 1.748 2.083-2.3 3.675 4.01-1.636z"></path></g><g><path fill="#1d1d1b" d="M45.996 257.782l-8.088 2.629a4.48 4.48 0 0 1-2.591.201 3.839 3.839 0 0 1-1.89-1.306 4.92 4.92 0 0 1-.694-1.128 2.943 2.943 0 0 1-.284-1.113l2.36-.597c.01.206.05.41.12.605.064.19.163.367.29.522a.993.993 0 0 0 .747.411l3.914-7.52 2.106 2.516-2.151 3.876 4.227-1.389z"></path></g><g><path fill="#1d1d1b" d="M48.543 259.022c-.034.43.109.857.395 1.18a1.71 1.71 0 1 0-.395-1.18zm-4.033 5.37l4.78.156 1.388-1.18-4.563-5.444-1.792 1.494 1.98 2.36-4.78-.165-1.404 1.18 4.734 5.653 1.785-1.493z"></path></g><g><path fill="#1d1d1b" d="M51.627 268.103c.59.142 1.016.656 1.045 1.262a1.285 1.285 0 0 1-.306.807l-1.598-1.905c.257-.156.562-.214.859-.164zm2.046 4.832a3.95 3.95 0 0 0 1.292-1.822 3.734 3.734 0 0 0 .06-2.062 5.146 5.146 0 0 0-2.845-3.33 3.929 3.929 0 0 0-2.099-.292 3.808 3.808 0 0 0-1.95.89 3.734 3.734 0 0 0-1.209 1.769 3.854 3.854 0 0 0-.045 2.18 5.474 5.474 0 0 0 1.18 2.241 4.332 4.332 0 0 0 3.122 1.792l.216-2.36a2.83 2.83 0 0 1-.821-.298 2.554 2.554 0 0 1-.642-.568 1.904 1.904 0 0 1-.456-.91 1.307 1.307 0 0 1 .15-.867l3.45 4.115z"></path></g><g><path fill="#1d1d1b" d="M58.303 270.792c.01.504.204.988.546 1.359.31.4.762.666 1.262.746a1.56 1.56 0 0 0 1.262-.373c.34-.274.537-.69.53-1.128a2.083 2.083 0 0 0-.568-1.351 2.009 2.009 0 0 0-1.24-.747 1.539 1.539 0 0 0-1.792 1.493zm-10.171 5.459c.184.655.522 1.257.986 1.755a3.398 3.398 0 0 0 2.24 1.329 3.189 3.189 0 0 0 2.412-.851l5.624-4.705-2.047-2.45-5.6 4.69c-.17.167-.391.27-.628.291a.598.598 0 0 1-.478-.224 1.494 1.494 0 0 1-.321-.672l-2.188.837z"></path></g><g><path fill="#1d1d1b" d="M64.375 289.096l-.844-1.008-1.3 1.09-2.076-2.48 1.3-1.09-3.294-3.928 1.621-1.36 7.349-.686 2.195 2.62-6.721.748.874 1.03 1.165-.97 2.009 2.404-1.158.971.844 1.008z"></path></g><g><path fill="#1d1d1b" d="M70.768 291.672c-1.277 1.076-2.159 1.322-2.644.747-.485-.575-.09-1.396 1.187-2.472 1.277-1.075 2.159-1.322 2.644-.747.485.575.09 1.404-1.187 2.472zm-5.713.284a4.421 4.421 0 0 0 1.023 2.173 4.302 4.302 0 0 0 1.964 1.382c.77.254 1.597.28 2.382.075a6.983 6.983 0 0 0 4.25-3.57c.343-.733.465-1.551.35-2.353a4.347 4.347 0 0 0-1.023-2.18 4.413 4.413 0 0 0-1.964-1.382 4.152 4.152 0 0 0-2.382-.067 7.005 7.005 0 0 0-4.25 3.562 4.175 4.175 0 0 0-.35 2.36z"></path></g><g><path fill="#1d1d1b" d="M6.58 124.91c.068.356.004.725-.18 1.038l-.538 1.09-2.106-1.053.538-1.09c.15-.332.415-.597.747-.747.303-.11.64-.08.919.082.297.122.522.372.612.68zm-2.995-3.256a5.847 5.847 0 0 0-1.464 1.934L0 127.852l8.842 4.414 1.494-2.987-2.173-1.09.634-1.278a5.87 5.87 0 0 0 .658-2.337 3.405 3.405 0 0 0-1.994-3.36 3.488 3.488 0 0 0-2.017-.382 3.532 3.532 0 0 0-1.86.822z"></path></g><g><path fill="#1d1d1b" d="M13.174 117.382c.136.322.114.69-.06.993a1.157 1.157 0 0 1-.747.635 1.65 1.65 0 0 1-1.165-.187 1.606 1.606 0 0 1-.829-.806c-.128-.32-.11-.681.052-.986.141-.312.416-.542.747-.627a1.59 1.59 0 0 1 1.158.179c.37.154.67.438.844.799zm.702 3.936a5.228 5.228 0 0 0 1.516-1.838 5.123 5.123 0 0 0 .575-2.315 3.958 3.958 0 0 0-.568-2.06 3.936 3.936 0 0 0-5.69-1.046 5.228 5.228 0 0 0-1.494 1.852 5.146 5.146 0 0 0-.56 2.3c-.01.726.184 1.44.56 2.061.368.62.907 1.121 1.553 1.441.651.336 1.385.476 2.114.404a3.996 3.996 0 0 0 1.994-.8z"></path></g><g><path fill="#1d1d1b" d="M14.817 104.514a3.51 3.51 0 0 1 2.71.374l3.951 1.986-1.419 2.86-3.457-1.717c-.792-.396-1.33-.306-1.614.254a1.113 1.113 0 0 0-.044.948c.191.375.512.667.903.822l3.256 1.613-1.426 2.86-6.915-3.435 1.351-2.711.68.336a3.032 3.032 0 0 1-.142-1.24 3.57 3.57 0 0 1 .373-1.247 3.084 3.084 0 0 1 1.793-1.703z"></path></g><g><path fill="#1d1d1b" d="M15.175 102.177l1.42-2.86 6.915 3.435-1.42 2.86zm-.881-.665a1.546 1.546 0 0 1-2.084-1.038 1.994 1.994 0 0 1 .21-1.449 2.091 2.091 0 0 1 1.023-1.06c.399-.182.86-.168 1.247.037.418.191.73.558.851 1.001.13.505.058 1.041-.202 1.494a2.039 2.039 0 0 1-1.045 1.015z"></path></g><g><path fill="#1d1d1b" d="M25.212 94.096l2.084 1.038-3.279 6.61-1.613-.844-1.77-4.444-1.374 2.764-2.083-1.016 3.159-6.363 1.62.844 1.763 4.48zm-8.035 1.442a1.613 1.613 0 0 1-1.964-2.24c.176-.395.509-.698.918-.837.411-.134.86-.094 1.24.112.382.163.684.472.836.859.134.411.093.859-.112 1.24a1.598 1.598 0 0 1-.918.866z"></path></g><g><path fill="#1d1d1b" d="M24.241 89.123c-.116-.61.19-1.222.747-1.494.273-.113.576-.129.86-.045l-1.106 2.24a1.322 1.322 0 0 1-.493-.746zm3.63-3.802a3.943 3.943 0 0 0-2.188-.448 3.734 3.734 0 0 0-1.92.747 4.952 4.952 0 0 0-1.366 1.71 4.884 4.884 0 0 0-.538 2.24 3.846 3.846 0 0 0 .575 2.032 4.003 4.003 0 0 0 3.697 1.837 3.913 3.913 0 0 0 2.016-.829 5.593 5.593 0 0 0 1.554-1.979 4.302 4.302 0 0 0 .388-3.577l-2.24.747c.061.287.081.581.06.874a2.621 2.621 0 0 1-.27.821c-.147.302-.37.56-.65.747a1.3 1.3 0 0 1-.85.202l2.397-4.817z"></path></g><g><path fill="#1d1d1b" d="M33.128 89.01l-1.643-1.665c.208-.145.375-.34.486-.567a.583.583 0 0 0 0-.523 1 1 0 0 0-.515-.463l-6.542-3.249 1.418-2.86 6.58 3.293a3.181 3.181 0 0 1 1.747 1.867c.255.877.145 1.82-.306 2.614-.28.608-.7 1.14-1.225 1.554zm-9.08-7.131c-.412.177-.88.16-1.278-.045a1.494 1.494 0 0 1-.806-.993 2.061 2.061 0 0 1 .209-1.494c.202-.46.562-.834 1.015-1.053.391-.194.85-.194 1.24 0 .418.191.73.558.851 1 .13.506.058 1.042-.201 1.494-.195.48-.563.869-1.03 1.09z"></path></g><g><path fill="#1d1d1b" d="M28.88 69.72l8.856 4.407-1.493 2.987-6.595-3.286-.746 1.494-2.24-1.113z"></path></g><g><path fill="#1d1d1b" d="M38.535 67.383a1.247 1.247 0 0 1-.694 1.404.963.963 0 0 1-.807-.067.934.934 0 0 1-.537-.605 1.075 1.075 0 0 1 .097-.822c.111-.257.317-.463.575-.575a.963.963 0 0 1 .806.068c.26.112.457.333.538.605zM33.1 66.226a.836.836 0 0 1 .507-1.024 1 1 0 0 1 1.143.553.747.747 0 0 1-.052.612.747.747 0 0 1-.456.411.836.836 0 0 1-.657-.082.822.822 0 0 1-.456-.47zm5.145-2.667c-.468.05-.917.214-1.307.478a2.367 2.367 0 0 0-1.307-1.74 2.427 2.427 0 0 0-1.62-.231 3.346 3.346 0 0 0-1.569.791 6.28 6.28 0 0 0-1.889 3.81c-.07.597.028 1.202.284 1.747.241.507.65.916 1.157 1.157a2.412 2.412 0 0 0 2.181 0c.037.464.186.913.433 1.307.249.387.6.698 1.016.896a2.666 2.666 0 0 0 1.717.247 3.525 3.525 0 0 0 1.68-.911 7.08 7.08 0 0 0 2.054-4.138 3.555 3.555 0 0 0-.26-1.919 2.644 2.644 0 0 0-1.248-1.217 2.547 2.547 0 0 0-1.322-.277z"></path></g><g><path fill="#1d1d1b" d="M41.276 60.236c.466-.164.98-.12 1.412.12.221.108.427.247.612.41.288.282.555.584.8.904l1.455 1.822-.896 1.77-1.822-1.703c-.242.199-.54.316-.851.336a1.83 1.83 0 0 1-.956-.209 1.74 1.74 0 0 1-.949-1.053 2.069 2.069 0 0 1 1.195-2.404z"></path></g><g><path fill="#1d1d1b" d="M42.717 51.67a2.905 2.905 0 0 1 2.48.135 3.211 3.211 0 0 1 1.322 1.202c.336.58.499 1.243.47 1.912a5.915 5.915 0 0 1-.687 2.48 9.888 9.888 0 0 1-1.135 1.77c-.399.51-.872.958-1.404 1.328l-1.695-2.106c.39-.266.746-.58 1.06-.933.296-.338.547-.712.747-1.113a1.89 1.89 0 0 0 .232-.933.627.627 0 0 0-.351-.575.568.568 0 0 0-.62.052c-.295.27-.528.601-.68.97l-1.277 2.57-5.138-3.084 2.92-5.885 2.24 1.12-1.702 3.428.836.5.232-.455a4.526 4.526 0 0 1 2.15-2.383z"></path></g><g><path fill="#fff" d="M45.115 139.316l8.461 4.19-1.157 2.344-5.437 1.352 3.846 1.897-1.382 2.778-8.454-4.182 1.158-2.345 5.437-1.314-3.846-1.897z"></path></g><g><path fill="#fff" d="M47.602 138.942l1.351-2.733 6.617 3.271-1.352 2.733zm-.837-.634a1.494 1.494 0 0 1-1.956-.986 1.987 1.987 0 0 1 .194-1.39c.194-.44.538-.797.97-1.007a1.352 1.352 0 0 1 1.188 0c.4.185.698.537.814.963.116.47.05.966-.187 1.389a1.98 1.98 0 0 1-1.023 1.03z"></path></g><g><path fill="#fff" d="M52.867 133.252c-.101-.57.184-1.138.702-1.397.263-.106.555-.121.829-.045l-1.053 2.129a1.255 1.255 0 0 1-.478-.687zm4.092-3.301zm0 0c-.38-.217-.582-.336-.597-.396a3.734 3.734 0 0 0-2.091-.426c-.667.069-1.3.328-1.823.747a4.817 4.817 0 0 0-1.307 1.636 4.556 4.556 0 0 0-.507 2.135 3.63 3.63 0 0 0 2.076 3.309c.619.317 1.317.446 2.009.373a3.734 3.734 0 0 0 1.919-.791 5.318 5.318 0 0 0 1.494-1.89 4.137 4.137 0 0 0 .366-3.413l-2.144.747c.056.273.074.552.053.829-.039.274-.125.54-.254.784a1.747 1.747 0 0 1-.62.747 1.195 1.195 0 0 1-.814.202z"></path></g><g><path fill="#fff" d="M59.857 124.887c.124.294.11.629-.038.911-.137.31-.415.536-.746.605-.38.082-.776.021-1.113-.171a1.546 1.546 0 0 1-.807-.747 1.15 1.15 0 0 1 .045-.941c.144-.305.419-.528.747-.605a1.86 1.86 0 0 1 1.912.948zm-6.498-3.525l2.809 1.382a2.591 2.591 0 0 0-1.404 1.404 3.555 3.555 0 0 0-.374 1.807 3.42 3.42 0 0 0 .62 1.755 4.22 4.22 0 0 0 1.598 1.322c.625.324 1.321.483 2.024.463a3.383 3.383 0 0 0 1.777-.56 3.54 3.54 0 0 0 1.21-1.396c.387-.647.472-1.43.232-2.144l.545.27 1.284-2.6-8.961-4.436z"></path></g><g><path fill="#fff" d="M64.046 116.426c.133.315.113.672-.052.97-.14.307-.418.528-.747.598a1.86 1.86 0 0 1-1.912-.948c-.127-.305-.11-.65.045-.941.145-.304.42-.527.747-.605a1.875 1.875 0 0 1 1.92.948zm.702 3.764a5.175 5.175 0 0 0 1.957-3.966 3.734 3.734 0 0 0-5.975-2.987 5.31 5.31 0 0 0-1.964 3.966 3.794 3.794 0 0 0 .538 1.971 3.63 3.63 0 0 0 1.494 1.374c.62.32 1.321.453 2.016.381a3.786 3.786 0 0 0 1.904-.747z"></path></g><g><path fill="#fff" d="M67.213 99.294l5.474 5.571-1.314 2.66-3.555-.509 2.539 2.547-1.314 2.659-7.745-.971 1.277-2.584 4.055.59-2.905-2.913 1.15-2.322 4.093.597-2.943-2.928z"></path></g><g><path fill="#fff" d="M74.009 97.98a.986.986 0 0 1-.097.59.747.747 0 0 1-.389.396.545.545 0 0 1-.47 0c-.366-.187-.418-.553-.142-1.113l.336-.672.463.224c.16.154.264.356.299.575zm-5.303-1.987a7.236 7.236 0 0 0-.59 1.696 5.385 5.385 0 0 0-.134 1.65h2.24a2.83 2.83 0 0 1 0-.97c.056-.34.162-.67.314-.98.366-.738.83-1.022 1.39-.858l-.546 1.098a4.608 4.608 0 0 0-.62 2.524 1.89 1.89 0 0 0 1.12 1.494c.366.189.778.27 1.188.231a2.24 2.24 0 0 0 1.15-.47c.397-.321.714-.73.926-1.195a2.084 2.084 0 0 0-.06-2.368l.866.434 1.263-2.54-3.555-1.762a3.346 3.346 0 0 0-2.853-.269 4.48 4.48 0 0 0-2.099 2.285z"></path></g><g><path fill="#fff" d="M77.228 88.697c.158.66-.178 1.34-.8 1.613-.303.12-.645.101-.933-.052a1.075 1.075 0 0 1-.597-.695 1.3 1.3 0 0 1 .112-.963c.133-.3.38-.537.687-.657.298-.121.635-.102.918.052.295.136.518.391.613.702zm-3.615-2.293l.747.374c-.828.15-1.521.714-1.837 1.493a3.734 3.734 0 0 0-.389 1.778c.02.611.21 1.206.545 1.717.358.547.859.984 1.45 1.262.582.3 1.235.434 1.889.389a3.376 3.376 0 0 0 1.702-.605c.5-.36.902-.837 1.173-1.39.384-.656.457-1.449.202-2.165l.119.06c.394.16.7.48.844.881.096.47.01.958-.239 1.367-.199.382-.45.734-.747 1.045a3.517 3.517 0 0 1-.956.747l1.404 1.845a5.31 5.31 0 0 0 1.337-1.165 8.475 8.475 0 0 0 1.128-1.748c.603-1.04.79-2.27.522-3.443a4.033 4.033 0 0 0-2.315-2.45l-5.295-2.62z"></path></g><g><path fill="#fff" d="M82.149 81.543a.986.986 0 0 1-.082.575.822.822 0 0 1-.388.403.575.575 0 0 1-.471 0c-.366-.187-.418-.553-.142-1.113l.336-.672.433.232a.993.993 0 0 1 .307.575zm-3.211-4.272a4.48 4.48 0 0 0-2.099 2.293 7.237 7.237 0 0 0-.59 1.695 5.385 5.385 0 0 0-.134 1.65h2.24a2.875 2.875 0 0 1 0-.978c.056-.34.162-.67.314-.978.366-.74.829-1.024 1.389-.86l-.545 1.099a4.608 4.608 0 0 0-.62 2.524 1.89 1.89 0 0 0 1.12 1.493c.366.19.778.27 1.188.232a2.24 2.24 0 0 0 1.15-.47c.397-.322.714-.73.926-1.195a2.084 2.084 0 0 0-.06-2.368l.866.433 1.262-2.539-3.554-1.762a3.346 3.346 0 0 0-2.853-.27z"></path></g><g><path fill="#fff" d="M159.37 42.41l-2.988 9.462h-3.413l-1.56-5.034-1.57 5.056h-3.412l-3.04-9.357h3.279l1.673 5.34 1.695-5.385h2.927l1.688 5.384 1.695-5.451z"></path></g><g><path fill="#fff" d="M163.364 49.945a.993.993 0 0 1-.56.172.747.747 0 0 1-.537-.157.53.53 0 0 1-.202-.418c0-.418.306-.635.926-.635h.747v.508a1.053 1.053 0 0 1-.374.53zm2.36-4.787a4.48 4.48 0 0 0-3.002-.836 7.378 7.378 0 0 0-1.785.239 5.28 5.28 0 0 0-1.493.62l.986 2a2.8 2.8 0 0 1 .873-.425 3.167 3.167 0 0 1 1.009-.164c.828-.008 1.291.276 1.396.851h-1.232a4.54 4.54 0 0 0-2.524.59 1.874 1.874 0 0 0-.83 1.666 2.24 2.24 0 0 0 1.24 2.001c.47.208.98.308 1.494.291a2.076 2.076 0 0 0 2.084-1.127v.933h2.83v-3.965a3.316 3.316 0 0 0-1.046-2.674z"></path></g><g><path fill="#fff" d="M173.095 48.638c-.52.438-1.28.438-1.8 0a1.135 1.135 0 0 1-.373-.859 1.113 1.113 0 0 1 .351-.851 1.3 1.3 0 0 1 .911-.329c.328-.014.65.098.896.314.242.216.376.528.366.851.014.324-.114.638-.35.86zm.456-4.272v.837a2.464 2.464 0 0 0-2.196-.956 3.66 3.66 0 0 0-1.755.455c-.54.289-.987.724-1.292 1.255a3.51 3.51 0 0 0-.47 1.867 3.57 3.57 0 0 0 .5 1.86c.312.528.765.96 1.307 1.247.544.284 1.15.43 1.763.426a2.577 2.577 0 0 0 2.031-.8v.135c.035.423-.111.841-.403 1.15-.38.296-.857.438-1.337.396a4.324 4.324 0 0 1-1.27-.187 3.45 3.45 0 0 1-1.09-.523l-1.016 2.084c.504.32 1.06.547 1.643.672a8.641 8.641 0 0 0 2.061.217 4.727 4.727 0 0 0 3.316-1.083 4.018 4.018 0 0 0 1.143-3.167l-.045-5.907z"></path></g><g><path fill="#fff" d="M181.699 49.803a.956.956 0 0 1-.56.172.747.747 0 0 1-.53-.164.53.53 0 0 1-.202-.426c-.008-.41.306-.627.926-.627h.747v.515a1.053 1.053 0 0 1-.381.53zm2.367-4.787a4.436 4.436 0 0 0-3.032-.859 7.319 7.319 0 0 0-1.785.232 5.653 5.653 0 0 0-1.493.627l.993 2.002c.263-.19.556-.337.866-.434a3.466 3.466 0 0 1 1.016-.156c.821-.008 1.292.276 1.396.851h-1.232a4.593 4.593 0 0 0-2.532.582 1.89 1.89 0 0 0-.821 1.666c0 .411.114.814.328 1.165.224.358.549.641.934.814.469.212.98.314 1.494.299.86.09 1.688-.359 2.083-1.128v.97h2.83v-3.965a3.308 3.308 0 0 0-1.045-2.666z"></path></g><g><path fill="#fff" d="M130.863 65.636a1.098 1.098 0 0 1-.858.373c-.331.016-.65-.122-.867-.373a1.568 1.568 0 0 1-.343-1.068 1.494 1.494 0 0 1 .328-1.068 1.165 1.165 0 0 1 1.725 0c.244.297.367.676.344 1.06.028.387-.09.77-.329 1.076zm-3.024 2.285a5.228 5.228 0 0 0 4.42 0 3.809 3.809 0 0 0 1.495-1.374 3.69 3.69 0 0 0 .53-2.002 3.607 3.607 0 0 0-.568-1.971 3.682 3.682 0 0 0-1.53-1.345 5.228 5.228 0 0 0-4.422 0 3.734 3.734 0 0 0-1.494 1.367 3.809 3.809 0 0 0 0 3.95c.38.594.914 1.072 1.546 1.382z"></path></g><g><path fill="#fff" d="M140.273 65.62a1.18 1.18 0 0 1-1.725 0 1.553 1.553 0 0 1-.344-1.067 1.494 1.494 0 0 1 .33-1.068c.212-.254.527-.4.858-.396.33-.007.648.132.866.38.242.302.365.683.344 1.069.033.385-.085.768-.329 1.068zm1.62-4.495a3.532 3.532 0 0 0-1.821-.44 2.554 2.554 0 0 0-2.017.746v-.605h-2.897l.082 9.992h3.04v-3.114c.52.447 1.197.67 1.881.62a3.592 3.592 0 0 0 1.785-.485 3.428 3.428 0 0 0 1.285-1.345c.32-.622.48-1.316.463-2.016a4.122 4.122 0 0 0-.5-2.024 3.323 3.323 0 0 0-1.3-1.33z"></path></g><g><path fill="#fff" d="M150.109 67.854c-.579.29-1.221.428-1.867.403a3.48 3.48 0 0 1-2.398-.747 2.86 2.86 0 0 1-.851-2.24v-1.882h-1.016v-2.24h1.016v-2.07h3.047v2.07h1.494v2.24h-1.494v1.867c-.01.19.055.377.18.522.119.127.288.195.462.187a1.24 1.24 0 0 0 .68-.209z"></path></g><g><path fill="#fff" d="M158.928 60.662l-2.987 7.55a4.294 4.294 0 0 1-1.411 2.069 3.734 3.734 0 0 1-2.114.597 4.48 4.48 0 0 1-1.247-.172 2.838 2.838 0 0 1-1-.47l1-2.099c.156.119.33.212.515.277.179.069.369.104.56.104a.941.941 0 0 0 .747-.298l-3.159-7.469h3.13l1.553 3.944 1.493-3.966z"></path></g><g><path fill="#fff" d="M171.31 61.252a3.45 3.45 0 0 1 .822 2.472v4.212h-3.047v-3.682c0-.844-.284-1.262-.829-1.262a.844.844 0 0 0-.694.328 1.613 1.613 0 0 0-.254 1.031v3.6h-3.055l.045-3.645c0-.844-.291-1.262-.836-1.262a.889.889 0 0 0-.695.329 1.658 1.658 0 0 0-.254 1.03v3.6h-3.047l-.06-7.379h2.898v.695a2.838 2.838 0 0 1 2.084-.836c.46-.008.915.084 1.336.268.401.178.741.468.979.837a3.04 3.04 0 0 1 1.075-.844c.437-.197.91-.299 1.39-.299a2.853 2.853 0 0 1 2.143.807z"></path></g><g><path fill="#fff" d="M177.337 66.016a.956.956 0 0 1-.567.172.747.747 0 0 1-.538-.164.523.523 0 0 1-.194-.418c-.008-.419.306-.628.926-.628h.747v.516a.956.956 0 0 1-.374.522zm2.368-4.787a4.518 4.518 0 0 0-3.025-.836 7.386 7.386 0 0 0-1.792.239 5.16 5.16 0 0 0-1.494.627l.986 2.002c.264-.194.56-.341.874-.433.326-.105.666-.16 1.008-.165.829-.007 1.3.277 1.396.852h-1.224a4.615 4.615 0 0 0-2.532.59 1.867 1.867 0 0 0-.822 1.665 2.144 2.144 0 0 0 1.263 1.979c.468.213.98.313 1.493.291a2.091 2.091 0 0 0 2.084-1.12v.948h2.83v-3.965a3.36 3.36 0 0 0-1.045-2.674z"></path></g><g><path fill="#fff" d="M182.02 57.854h3.047l.082 10.007h-3.047z"></path></g><g><path fill="#fff" d="M193.76 61.073c.607.68.914 1.577.851 2.486v4.205h-3.047v-3.682c0-.844-.314-1.262-.911-1.254a1.045 1.045 0 0 0-.829.358 1.68 1.68 0 0 0-.306 1.135v3.465h-3.047l-.053-7.378h2.898v.747c.28-.286.62-.508.993-.65.39-.152.806-.228 1.225-.224a2.987 2.987 0 0 1 2.226.792z"></path></g><g><path fill="#fff" d="M199.816 65.845a.971.971 0 0 1-.567.171.814.814 0 0 1-.538-.164.545.545 0 0 1-.194-.426c-.008-.41.299-.627.926-.627h.747v.515a1 1 0 0 1-.374.53zm2.368-4.787a4.436 4.436 0 0 0-3.017-.86 7.38 7.38 0 0 0-1.793.232 5.593 5.593 0 0 0-1.493.628l.985 2.001c.268-.188.562-.334.874-.433.327-.1.666-.156 1.008-.164.83-.008 1.292.283 1.397.858h-1.232a4.555 4.555 0 0 0-2.532.583 1.882 1.882 0 0 0-.822 1.665 2.143 2.143 0 0 0 1.263 1.98c.468.213.98.312 1.493.29a2.091 2.091 0 0 0 2.084-1.12v.971h2.83v-3.965c.07-1-.314-1.98-1.045-2.666z"></path></g><g><path fill="#fff" d="M255.409 91.087l-8.402 4.301-1.195-2.33 2.18-5.145-3.785 1.949-1.412-2.756 8.402-4.301 1.195 2.33-2.211 5.145 3.816-1.956z"></path></g><g><path fill="#fff" d="M251.085 99.264a1.038 1.038 0 0 1-.419-.44.747.747 0 0 1-.097-.545.568.568 0 0 1 .292-.374c.366-.201.694-.007.978.545l.343.672-.455.24a1.068 1.068 0 0 1-.642-.098zm5.34-.037a4.48 4.48 0 0 0-.553-3.07 7.244 7.244 0 0 0-1.009-1.493 5.286 5.286 0 0 0-1.247-1.083l-1.344 1.778c.281.152.534.351.747.59.24.245.444.524.605.828.373.732.328 1.278-.142 1.629l-.56-1.09a4.593 4.593 0 0 0-1.658-2.002 1.875 1.875 0 0 0-1.86 0 2.136 2.136 0 0 0-1.195 2.016c.015.523.153 1.035.404 1.494a2.091 2.091 0 0 0 1.941 1.359l-.866.44 1.292 2.517 3.525-1.785a3.308 3.308 0 0 0 1.92-2.128z"></path></g><g><path fill="#fff" d="M256.156 107.561a1.105 1.105 0 0 1-.732-.59 1.128 1.128 0 0 1-.053-.94c.162-.355.45-.638.807-.792.33-.196.721-.262 1.098-.187.327.074.603.294.747.598.156.29.178.633.06.94a1.867 1.867 0 0 1-1.905.971zm6.72-3.174l-2.785 1.427a2.569 2.569 0 0 0-.291-1.957 3.517 3.517 0 0 0-1.225-1.374 3.39 3.39 0 0 0-1.777-.545 4.062 4.062 0 0 0-2.017.493 4.145 4.145 0 0 0-1.583 1.344 3.405 3.405 0 0 0-.605 1.763 3.66 3.66 0 0 0 .404 1.807 2.584 2.584 0 0 0 1.583 1.493l-.538.277 1.314 2.606 8.91-4.555z"></path></g><g><path fill="#fff" d="M268.276 120.758l-7.737 1.053-1.351-2.637 2.524-2.554-3.562.523-1.352-2.644 5.4-5.638 1.314 2.569-2.876 2.912 4.07-.604 1.18 2.307-2.92 2.935 4.108-.62z"></path></g><g><path fill="#fff" d="M265.289 127.038a1.015 1.015 0 0 1-.418-.508.806.806 0 0 1-.097-.552.538.538 0 0 1 .291-.366c.366-.202.694-.008.978.545l.344.672-.456.232c-.219.039-.444.005-.642-.098zm5.34-.074a4.481 4.481 0 0 0-.553-3.055 7.29 7.29 0 0 0-1.008-1.494c-.36-.42-.78-.785-1.247-1.082l-1.345 1.784c.28.152.532.35.747.583.237.247.439.526.598.829.38.74.336 1.284-.135 1.628l-.56-1.09a4.526 4.526 0 0 0-1.658-1.994 1.874 1.874 0 0 0-1.86 0 2.18 2.18 0 0 0-.888.814c-.221.36-.33.779-.314 1.202a3.3 3.3 0 0 0 .411 1.494c.3.81 1.07 1.35 1.934 1.359l-.859.44 1.285 2.525 3.532-1.808a3.338 3.338 0 0 0 1.92-2.135z"></path></g><g><path fill="#fff" d="M270.823 135.111a1.292 1.292 0 0 1-.68-.687 1.255 1.255 0 0 1-.112-.948 1.18 1.18 0 0 1 1.494-.747c.624.268.97.942.821 1.605-.082.313-.302.57-.597.703-.282.16-.622.188-.926.074zm4.01-1.478l-.747.38a2.48 2.48 0 0 0-.134-2.39 3.577 3.577 0 0 0-1.195-1.366 3.36 3.36 0 0 0-1.703-.59 3.495 3.495 0 0 0-1.874.418 3.563 3.563 0 0 0-1.441 1.285 3.33 3.33 0 0 0-.523 1.725 3.675 3.675 0 0 0 .41 1.77 2.57 2.57 0 0 0 1.629 1.456l-.127.06c-.364.22-.804.274-1.21.15a1.912 1.912 0 0 1-.956-1.01c-.19-.386-.323-.799-.396-1.224-.07-.4-.07-.81 0-1.21h-2.315c-.056.591-.01 1.187.134 1.763a9 9 0 0 0 .747 1.941 4.824 4.824 0 0 0 2.457 2.48 4.092 4.092 0 0 0 3.346-.403l5.228-2.696z"></path></g><g><path fill="#fff" d="M273.646 143.326a1.015 1.015 0 0 1-.418-.433.806.806 0 0 1-.097-.553.538.538 0 0 1 .29-.366c.367-.201.695-.007.98.546l.343.672-.456.231c-.219.04-.445.005-.642-.097zm4.787-3.114a7.288 7.288 0 0 0-1.008-1.494 5.467 5.467 0 0 0-1.248-1.083l-1.344 1.778c.28.155.532.354.747.59.24.244.442.523.597.829.381.74.337 1.277-.134 1.628l-.56-1.09a4.593 4.593 0 0 0-1.658-2.002 1.897 1.897 0 0 0-1.86 0 2.181 2.181 0 0 0-.888.814c-.221.361-.33.78-.314 1.202a3.33 3.33 0 0 0 .41 1.494 2.084 2.084 0 0 0 1.943 1.36l-.867.44 1.292 2.524 3.525-1.777a3.338 3.338 0 0 0 1.92-2.136 4.48 4.48 0 0 0-.553-3.077z"></path></g><g><path fill="#fff" d="M247.53 221.808c.013.38-.08.754-.269 1.083-.17.33-.428.603-.747.792-.332.188-.709.28-1.09.269a2.912 2.912 0 0 1-2.18-1.21 2.113 2.113 0 0 1-.352-1.068c-.014-.377.08-.75.27-1.076.17-.33.429-.606.746-.799a2.24 2.24 0 0 1 1.09-.269c.434.02.856.143 1.232.359.383.202.71.498.949.859.214.313.336.68.35 1.06zm.045 4.414a6.236 6.236 0 0 0 2.658-4.787 4.795 4.795 0 0 0-.62-2.517 5.063 5.063 0 0 0-4.443-2.464 4.787 4.787 0 0 0-2.465.806 5.884 5.884 0 0 0-1.881 2.091 5.795 5.795 0 0 0-.747 2.696 4.75 4.75 0 0 0 .612 2.517 5.049 5.049 0 0 0 4.48 2.472 4.728 4.728 0 0 0 2.465-.814z"></path></g><g><path fill="#fff" d="M254.871 213.511a3.733 3.733 0 0 1-.568 1.83 3.428 3.428 0 0 1-1.807 1.718 2.86 2.86 0 0 1-2.375-.359l-1.65-.911-.486.881-1.949-1.075.493-.889-1.807-1 1.494-2.667 1.807 1.001.747-1.322 1.949 1.083-.747 1.322 1.628.904a.747.747 0 0 0 .545.097.568.568 0 0 0 .389-.307c.123-.212.178-.457.156-.702z"></path></g><g><path fill="#fff" d="M252.937 202.317l5.108 6.303a4.242 4.242 0 0 1 1.068 2.24 3.734 3.734 0 0 1-.515 2.128c-.199.369-.45.706-.747 1.001-.25.273-.556.49-.896.635l-1.337-1.897c.182-.077.351-.183.5-.314.147-.124.27-.273.366-.44a.949.949 0 0 0 .105-.8l-8.036-.918 1.494-2.733 4.197.582-2.704-3.27z"></path></g><g><path fill="#fff" d="M255.745 204.878l-.26-1.988 1.788.992.107.824zm-.852-6.52l1.636-.171.252 1.926-1.788-.992zm4.847 6.893l1.494-2.666-4.453-2.472.492 3.769zm-7.251-7.52l-1.494 2.666 4.49 2.493-.492-3.769z"></path></g><g><path fill="#fff" d="M262.003 195.737a1.158 1.158 0 0 1-.836 1.494 1.598 1.598 0 0 1-1.098-.232 1.531 1.531 0 0 1-.747-.806 1.172 1.172 0 0 1 .836-1.494 1.83 1.83 0 0 1 1.867 1.038zm.515 3.779a4.794 4.794 0 0 0 1.494-1.688 4.854 4.854 0 0 0 .65-2.18 3.734 3.734 0 0 0-.456-1.994 3.869 3.869 0 0 0-3.45-1.92 3.735 3.735 0 0 0-1.927.68 4.921 4.921 0 0 0-1.493 1.703 4.855 4.855 0 0 0-.643 2.165 3.734 3.734 0 0 0 .44 1.994 3.809 3.809 0 0 0 3.451 1.92 3.809 3.809 0 0 0 1.934-.68z"></path></g><g><path fill="#fff" d="M266.887 192.242a5.34 5.34 0 0 1-1.18 1.046l-1.337-1.71c.378-.222.72-.499 1.016-.822.314-.335.587-.706.814-1.105a2.24 2.24 0 0 0 .276-.687.291.291 0 0 0-.127-.314c-.104-.052-.216 0-.343.12-.19.216-.366.443-.53.679a12.06 12.06 0 0 1-.986 1.21 2.405 2.405 0 0 1-1.113.657 1.912 1.912 0 0 1-1.449-.254 2.084 2.084 0 0 1-.91-1 2.934 2.934 0 0 1-.165-1.569c.11-.69.348-1.354.702-1.957.267-.481.58-.937.933-1.359.304-.377.661-.706 1.061-.978l1.352 1.71a4.197 4.197 0 0 0-1.494 1.598c-.321.583-.38.926-.18 1.046.202.12.217 0 .352-.12.191-.214.37-.438.538-.672.3-.423.629-.825.985-1.202.31-.308.693-.531 1.113-.65a1.92 1.92 0 0 1 1.449.262c.397.22.71.567.889.985.2.497.257 1.04.164 1.569a5.661 5.661 0 0 1-.747 1.994 8.374 8.374 0 0 1-1.083 1.523zm-7.826-7.072l1.404-2.532.597 3.368-.978 1.77z"></path></g><g><path fill="#fff" d="M270.673 184.841a3.809 3.809 0 0 1-1.941.695 3.652 3.652 0 0 1-2.01-.478 3.533 3.533 0 0 1-1.455-1.449 3.734 3.734 0 0 1-.434-2.009 5.1 5.1 0 0 1 .665-2.203 4.414 4.414 0 0 1 1.628-1.733 2.987 2.987 0 0 1 2.046-.373l-.134 2.621a1.397 1.397 0 0 0-1.494.65c-.17.294-.208.647-.104.97a1.792 1.792 0 0 0 1.874 1.039c.322-.086.593-.303.747-.598a1.404 1.404 0 0 0-.231-1.598l2.158-1.493c.475.53.74 1.215.747 1.926a4.317 4.317 0 0 1-.613 2.3 5.041 5.041 0 0 1-1.448 1.733zm-7.602-6.893l1.404-2.539.597 3.368-.978 1.77z"></path></g><g><path fill="#fff" d="M251.077 234.78l1.546-2.785 8.252 4.578-1.546 2.785z"></path></g><g><path fill="#fff" d="M263.975 230.845a5.31 5.31 0 0 1-1.18 1.038l-1.352-1.703c.378-.224.72-.504 1.016-.829.315-.334.589-.705.814-1.105a2.03 2.03 0 0 0 .276-.687.261.261 0 0 0-.127-.306c-.105-.06-.217-.023-.336.112a6.277 6.277 0 0 0-.538.68 10.29 10.29 0 0 1-.986 1.209 2.406 2.406 0 0 1-1.112.657 1.912 1.912 0 0 1-1.45-.254 2.12 2.12 0 0 1-.91-1 2.92 2.92 0 0 1-.165-1.561c.11-.693.348-1.36.702-1.964.27-.48.582-.936.934-1.36a5.077 5.077 0 0 1 1.06-.978l1.352 1.71a4.317 4.317 0 0 0-1.493 1.598c-.322.583-.381.934-.18 1.046.202.112.224 0 .351-.12.198-.208.378-.433.538-.672.3-.425.632-.827.993-1.202.306-.311.69-.533 1.113-.642a1.867 1.867 0 0 1 1.441.254c.4.218.713.566.889.985.2.498.257 1.041.164 1.569a5.78 5.78 0 0 1-.746 1.994 8.467 8.467 0 0 1-1.068 1.53z"></path></g><g><path fill="#fff" d="M269.643 220.24a3.734 3.734 0 0 1-.568 1.83 3.473 3.473 0 0 1-1.807 1.725 2.897 2.897 0 0 1-2.367-.359l-1.658-.918-.486.881-1.949-1.075.493-.89-1.807-1 1.493-2.658 1.808 1 .746-1.322 1.95 1.076-.747 1.322 1.628.903a.747.747 0 0 0 .545.105.605.605 0 0 0 .388-.314c.124-.21.179-.452.157-.694z"></path></g><g><path fill="#fff" d="M270.136 214.452a1.165 1.165 0 0 1-.837 1.494 1.591 1.591 0 0 1-1.097-.232 1.531 1.531 0 0 1-.747-.806 1.105 1.105 0 0 1 .09-.941c.15-.292.424-.5.746-.568a1.837 1.837 0 0 1 1.867 1.03zm.515 3.764a4.795 4.795 0 0 0 1.494-1.688 4.854 4.854 0 0 0 .65-2.18 3.816 3.816 0 0 0-.456-1.994 3.734 3.734 0 0 0-5.377-1.24 4.78 4.78 0 0 0-1.494 1.703 4.965 4.965 0 0 0-.65 2.165 3.771 3.771 0 0 0 .449 1.994 3.809 3.809 0 0 0 3.45 1.92 3.83 3.83 0 0 0 1.934-.68z"></path></g><g><path fill="#fff" d="M274.721 206.185a1.18 1.18 0 0 1-.836 1.494 1.546 1.546 0 0 1-1.098-.224 1.575 1.575 0 0 1-.747-.814 1.157 1.157 0 0 1 .837-1.494 1.86 1.86 0 0 1 1.867 1.038zm-3.047-3.6a3.6 3.6 0 0 0-1.3 1.337 2.554 2.554 0 0 0-.328 2.129l-.53-.292-1.412 2.532 8.716 4.824 1.493-2.658-2.718-1.494a2.591 2.591 0 0 0 1.494-1.33c.306-.544.463-1.16.455-1.784a3.39 3.39 0 0 0-.538-1.785 4.16 4.16 0 0 0-1.53-1.396 4.235 4.235 0 0 0-2.002-.56 3.369 3.369 0 0 0-1.8.477z"></path></g><g><path fill="#fff" d="M276.857 193.975a3.368 3.368 0 0 1 2.577.478l3.674 2.046-1.494 2.666-3.218-1.792c-.742-.409-1.258-.349-1.546.179a1.06 1.06 0 0 0-.09.896c.167.366.462.658.829.822l3.032 1.687-1.494 2.659-6.445-3.577 1.404-2.532.635.351a2.77 2.77 0 0 1-.082-1.187 3.48 3.48 0 0 1 .41-1.18 2.987 2.987 0 0 1 1.808-1.516z"></path></g><g><path fill="#fff" d="M277.298 191.764l1.493-2.666 6.453 3.577-1.494 2.666zm-.807-.672c-.4.152-.846.116-1.217-.097a1.404 1.404 0 0 1-.747-.986 1.957 1.957 0 0 1 .261-1.374c.211-.43.569-.772 1.009-.963a1.33 1.33 0 0 1 1.187.09c.381.206.654.569.747.992.091.479 0 .974-.254 1.39a1.994 1.994 0 0 1-.986.948z"></path></g><g><path fill="#fff" d="M286.125 187.201c.011.207-.04.413-.15.59a.784.784 0 0 1-.41.388.53.53 0 0 1-.463-.037c-.366-.202-.396-.567-.09-1.113l.366-.657.448.247c.151.16.248.364.277.582zm-3.01-4.413a4.48 4.48 0 0 0-2.188 2.173 7.132 7.132 0 0 0-.672 1.673 5.287 5.287 0 0 0-.21 1.635l2.241.127a2.713 2.713 0 0 1 .053-.97c.07-.337.188-.661.35-.964.404-.725.882-.986 1.435-.792l-.598 1.068a4.48 4.48 0 0 0-.747 2.494c.049.661.444 1.247 1.038 1.539.358.205.768.304 1.18.284a2.24 2.24 0 0 0 1.165-.411c.416-.304.756-.7.994-1.158a2.076 2.076 0 0 0 .044-2.367l.852.47 1.374-2.471-3.473-1.927a3.33 3.33 0 0 0-2.838-.404z"></path></g><g><path fill="#fff" d="M169.376 261.86c-.24.279-.553.485-.903.597a2.01 2.01 0 0 1-1.106.09 2.12 2.12 0 0 1-.993-.53 2.592 2.592 0 0 1-.68-1.083 2.629 2.629 0 0 1-.149-1.27 2.054 2.054 0 0 1 1.36-1.658 2.106 2.106 0 0 1 1.112-.082c.371.084.714.264.993.523.31.3.544.672.68 1.083.15.405.199.84.142 1.27-.05.376-.203.733-.44 1.03zm-2.838 3.338a6.184 6.184 0 0 0 5.16-1.815 4.69 4.69 0 0 0 1.21-2.293 5.041 5.041 0 0 0-1.687-4.794 4.81 4.81 0 0 0-2.375-1.03 6.243 6.243 0 0 0-5.168 1.821 4.787 4.787 0 0 0-1.21 2.293 5.041 5.041 0 0 0 1.688 4.795c.685.553 1.51.907 2.382 1.023z"></path></g><g><path fill="#fff" d="M180.377 260.53a3.779 3.779 0 0 1-1.636.986 3.473 3.473 0 0 1-2.502.09 2.83 2.83 0 0 1-1.53-1.845l-.628-1.777-.956.336-.747-2.099.956-.336-.687-1.949 2.876-1.008.687 1.941 1.426-.5.747 2.099-1.39.515.613 1.747a.747.747 0 0 0 .344.441.59.59 0 0 0 .493 0c.23-.08.433-.225.582-.418z"></path></g><g><path fill="#fff" d="M186.359 250.874l-.366 8.103a4.286 4.286 0 0 1-.687 2.39 3.734 3.734 0 0 1-1.808 1.247c-.399.14-.816.223-1.24.246-.368.033-.739-.01-1.09-.127l.262-2.307c.187.063.384.096.582.097.193.008.386-.02.568-.082a.963.963 0 0 0 .612-.53l-5.407-6.02 2.95-1.038 2.749 3.219.149-4.242z"></path></g><g><path fill="#fff" d="M186.777 254.63l1.111-1.64.678 1.93-.452.666zm3.69-5.444l1.336.956-1.11 1.638-.678-1.928zm-.964 8.402l2.875-1.016-1.685-4.792-2.127 3.14zm-.44-10.448l-2.876 1.008 1.701 4.843 2.127-3.14z"></path></g><g><path fill="#fff" d="M197.531 251.987a1.09 1.09 0 0 1-.717.642 1.068 1.068 0 0 1-.94-.075 1.568 1.568 0 0 1-.68-.896c-.141-.36-.141-.76 0-1.12.122-.306.373-.541.687-.642a1.12 1.12 0 0 1 .94.074c.325.205.564.52.673.89.149.358.162.759.037 1.127zm-2.143 3.166a5.228 5.228 0 0 0 4.167-1.493c.489-.494.83-1.115.986-1.793a3.816 3.816 0 0 0-1.307-3.734 3.734 3.734 0 0 0-1.89-.747 5.325 5.325 0 0 0-4.174 1.494 3.734 3.734 0 0 0-.994 1.785 3.57 3.57 0 0 0 .135 2.046 3.652 3.652 0 0 0 1.18 1.68c.55.42 1.207.68 1.897.747z"></path></g><g><path fill="#fff" d="M201.355 244.773l1.904-.672 1.792-2.92-2.733.963zm2.12 7.826a8.505 8.505 0 0 0 1.83-.396c.68-.215 1.311-.56 1.86-1.015.42-.332.741-.774.926-1.277.15-.43.15-.9 0-1.33a1.875 1.875 0 0 0-.911-1.15 2.427 2.427 0 0 0-1.262-.254c-.518.041-1.033.121-1.539.24-.278.066-.56.116-.844.149-.186.015-.268.067-.343-.15-.075-.216.201-.44.829-.657a4.234 4.234 0 0 1 2.188-.201l.12-2.174a4.974 4.974 0 0 0-1.442 0 9.18 9.18 0 0 0-1.59.396 5.571 5.571 0 0 0-1.83 1 2.988 2.988 0 0 0-.919 1.285 2.076 2.076 0 0 0 0 1.345c.132.494.462.913.911 1.157.395.192.832.276 1.27.247.518-.05 1.032-.135 1.538-.254.389-.082.672-.142.852-.157.179-.015.29.037.328.142.036.12-.01.249-.112.32a2.24 2.24 0 0 1-.664.33 5.736 5.736 0 0 1-1.337.283c-.436.048-.877.03-1.307-.052l-.127 2.173a5.526 5.526 0 0 0 1.576 0z"></path></g><g><path fill="#fff" d="M209.151 241.994l1.912-.672 1.785-2.912-2.733.963zm2.076 7.58a5.019 5.019 0 0 0 2.256-.268 4.368 4.368 0 0 0 1.979-1.307c.477-.54.742-1.236.747-1.957l-2.614-.306a1.374 1.374 0 0 1-.881 1.337 1.158 1.158 0 0 1-.971-.06 1.792 1.792 0 0 1-.747-2.016c.139-.32.413-.56.747-.657a1.389 1.389 0 0 1 1.53.492l1.838-1.882a3.04 3.04 0 0 0-1.777-1.075 4.398 4.398 0 0 0-2.368.224 4.93 4.93 0 0 0-1.957 1.202 3.801 3.801 0 0 0-1.015 1.793 3.779 3.779 0 0 0 1.314 3.734 3.81 3.81 0 0 0 1.92.747z"></path></g><g><path fill="#fff" d="M161.191 274.697l2.988-1.053 3.129 8.902-2.988 1.053z"></path></g><g><path fill="#fff" d="M165.642 273.129l2.988-1.053 3.136 8.902-2.987 1.06z"></path></g><g><path fill="#fff" d="M177.897 278.752a5.525 5.525 0 0 1-1.575 0l.127-2.173c.428.083.866.1 1.3.053.457-.04.908-.136 1.343-.284.24-.069.465-.18.665-.329a.284.284 0 0 0 .112-.314c0-.112-.15-.164-.329-.141a6.79 6.79 0 0 0-.851.156c-.507.114-1.021.196-1.538.247a2.352 2.352 0 0 1-1.27-.247 1.874 1.874 0 0 1-.911-1.15 2.046 2.046 0 0 1 0-1.351c.185-.503.503-.947.918-1.285a5.75 5.75 0 0 1 1.823-1 9.423 9.423 0 0 1 1.598-.396c.478-.07.963-.07 1.441 0l-.12 2.173a4.317 4.317 0 0 0-2.187.201c-.628.217-.904.441-.83.658.075.216.157.164.344.149.285-.03.567-.08.844-.15.507-.115 1.02-.195 1.538-.238.436-.03.872.057 1.263.254.447.243.776.658.91 1.15.15.43.15.898 0 1.329a2.987 2.987 0 0 1-.925 1.284 5.744 5.744 0 0 1-1.86 1.009 8.507 8.507 0 0 1-1.83.395z"></path></g><g><path fill="#fff" d="M189.182 274.585a3.854 3.854 0 0 1-1.636.994 3.51 3.51 0 0 1-2.502.082 2.83 2.83 0 0 1-1.53-1.838l-.628-1.784-.956.336-.747-2.099.956-.336-.687-1.942 2.875-1.015.687 1.949 1.427-.5.747 2.098-1.42.5.613 1.755a.747.747 0 0 0 .344.434.59.59 0 0 0 .493 0c.232-.077.435-.223.582-.419z"></path></g><g><path fill="#fff" d="M193.386 270.582a1.165 1.165 0 0 1-1.628.575 1.576 1.576 0 0 1-.672-.903 1.494 1.494 0 0 1 0-1.113 1.18 1.18 0 0 1 1.628-.575c.636.457.92 1.262.71 2.016zm-2.106 3.167a5.228 5.228 0 0 0 4.175-1.494 3.809 3.809 0 0 0 .986-1.792 3.734 3.734 0 0 0-3.204-4.48 5.228 5.228 0 0 0-4.167 1.493 3.772 3.772 0 0 0-1.001 1.792c-.147.681-.1 1.39.134 2.046a3.652 3.652 0 0 0 1.18 1.68 3.809 3.809 0 0 0 1.897.747z"></path></g><g><path fill="#fff" d="M202.288 267.453a1.165 1.165 0 0 1-1.628.575 1.553 1.553 0 0 1-.672-.888 1.598 1.598 0 0 1 0-1.128 1.12 1.12 0 0 1 .687-.65 1.09 1.09 0 0 1 .941.082c.33.205.572.524.68.896.137.359.137.755 0 1.113zm.097-4.72a3.51 3.51 0 0 0-1.77.127 2.599 2.599 0 0 0-1.665 1.374l-.202-.575-2.733.964 3.316 9.425 2.875-1.009-1.03-2.942a2.591 2.591 0 0 0 1.978 0 3.615 3.615 0 0 0 1.494-1.03 3.48 3.48 0 0 0 .747-1.688 4.152 4.152 0 0 0-.217-2.062 4.056 4.056 0 0 0-1.127-1.747 3.309 3.309 0 0 0-1.666-.837z"></path></g><g><path fill="#fff" d="M212.012 259.731a3.36 3.36 0 0 1 1.605 2.069l1.397 3.965-2.875 1.016-1.225-3.473c-.276-.799-.702-1.097-1.27-.896a1.046 1.046 0 0 0-.664.613c-.118.384-.091.798.074 1.165l1.15 3.27-2.875 1.009-2.45-6.96 2.741-.956.24.687c.177-.367.432-.69.746-.949.322-.269.692-.474 1.09-.605a2.987 2.987 0 0 1 2.316.045z"></path></g><g><path fill="#fff" d="M213.811 258.372l2.876-1.016 2.45 6.96-2.876 1.009zm-.156-1.038c-.4-.15-.711-.475-.844-.881-.154-.4-.116-.85.104-1.218a2.24 2.24 0 0 1 2.51-.903c.393.137.698.453.821.851.159.41.129.87-.082 1.255-.247.42-.645.73-1.113.866-.446.18-.943.192-1.396.03z"></path></g><g><path fill="#fff" d="M223.438 260.814a.986.986 0 0 1-.493.351.791.791 0 0 1-.553 0 .56.56 0 0 1-.328-.336c-.135-.388.082-.694.672-.896l.71-.254.171.485a1.03 1.03 0 0 1-.18.62zm.68-5.325a4.518 4.518 0 0 0-3.033.157 7.752 7.752 0 0 0-1.613.807 5.444 5.444 0 0 0-1.24 1.083l1.584 1.575c.186-.268.418-.5.687-.687.271-.207.574-.371.896-.485.784-.276 1.314-.157 1.598.35l-1.157.412a4.586 4.586 0 0 0-2.24 1.374 1.905 1.905 0 0 0-.24 1.844c.132.39.37.734.687.994.332.262.73.425 1.15.47a3.383 3.383 0 0 0 1.494-.209 2.09 2.09 0 0 0 1.606-1.74l.32.919 2.674-.941-1.321-3.734a3.316 3.316 0 0 0-1.853-2.189z"></path></g><g><path fill="#fff" d="M76.346 204.325a1.956 1.956 0 0 1-.926-.62 2.031 2.031 0 0 1-.478-1.008 2.061 2.061 0 0 1 .135-1.112c.157-.4.414-.752.747-1.023.32-.29.708-.496 1.127-.598a2.024 2.024 0 0 1 2.039.672c.251.281.417.629.478 1 .057.377.014.76-.127 1.114a2.666 2.666 0 0 1-.747 1.03c-.32.288-.708.491-1.127.59-.37.091-.759.076-1.12-.045zm-4.174-1.44a5.78 5.78 0 0 0 1.292 2.479 5.862 5.862 0 0 0 2.24 1.665c1.672.703 3.6.38 4.951-.83a4.727 4.727 0 0 0 1.599-4.741 5.705 5.705 0 0 0-1.3-2.495 5.803 5.803 0 0 0-2.24-1.673 4.847 4.847 0 0 0-6.542 5.594z"></path></g><g><path fill="#fff" d="M81.559 214.109a3.734 3.734 0 0 1-1.494-1.173 3.473 3.473 0 0 1-.985-2.3c.062-.834.488-1.6 1.165-2.091l1.434-1.225-.658-.747 1.696-1.448.657.746 1.568-1.336 1.98 2.315-1.57 1.336.98 1.15-1.689 1.45-1-1.15-1.412 1.21a.695.695 0 0 0-.284.47.612.612 0 0 0 .15.478c.16.185.37.32.605.388z"></path></g><g><path fill="#fff" d="M92.716 216.207l-7.692 2.584a4.272 4.272 0 0 1-2.472.217 3.734 3.734 0 0 1-1.822-1.233 4.481 4.481 0 0 1-.672-1.067 2.763 2.763 0 0 1-.276-1.06l2.24-.59a1.8 1.8 0 0 0 .12.574c.062.183.159.353.283.5a.948.948 0 0 0 .747.381l3.667-7.214 2.031 2.375-2.009 3.734 4.01-1.389z"></path></g><g><path fill="#fff" d="M89.363 217.955l1.923.448-1.552 1.325-.782-.183zm6.408 1.493l-.41 1.591-1.94-.452 1.551-1.325zm-8.185 2.114l1.986 2.315 3.85-3.29-3.688-.86zm9.589-4.182l-1.98-2.315-3.91 3.338 3.687.86z"></path></g><g><path fill="#fff" d="M95.726 227.028a1.165 1.165 0 0 1-1.128-1.314c.08-.38.291-.718.598-.956.28-.265.646-.419 1.03-.433a1.165 1.165 0 0 1 1.12 1.314c-.066.381-.278.72-.59.949-.278.266-.645.423-1.03.44zm-3.734-.858a4.847 4.847 0 0 0 1.06 1.994 4.906 4.906 0 0 0 1.815 1.366 3.674 3.674 0 0 0 2.024.27 3.824 3.824 0 0 0 2.987-2.562c.204-.663.22-1.369.045-2.04a4.99 4.99 0 0 0-1.075-2.008 4.937 4.937 0 0 0-1.8-1.36 3.734 3.734 0 0 0-2.024-.283 3.816 3.816 0 0 0-2.987 2.569 3.824 3.824 0 0 0-.045 2.054z"></path></g><g><path fill="#fff" d="M103.844 227.984l1.314 1.539 3.368.612-1.89-2.203zm-6.565 4.81c.288.547.637 1.06 1.038 1.53a5.66 5.66 0 0 0 1.614 1.375 2.89 2.89 0 0 0 1.493.396c.453-.021.887-.192 1.232-.486.409-.306.678-.763.747-1.27a2.532 2.532 0 0 0-.216-1.269 10.384 10.384 0 0 0-.747-1.344 6.443 6.443 0 0 1-.448-.747c-.097-.172-.172-.209 0-.366.171-.157.485.023.918.53.488.563.822 1.242.971 1.972l2.069-.672a4.855 4.855 0 0 0-.545-1.337 8.594 8.594 0 0 0-.949-1.344 5.61 5.61 0 0 0-1.59-1.344 2.89 2.89 0 0 0-1.494-.389 2.069 2.069 0 0 0-1.255.5c-.41.306-.679.764-.747 1.27-.047.436.031.876.224 1.27.228.467.49.916.785 1.344.224.343.358.582.455.747.097.164.09.284 0 .358a.291.291 0 0 1-.336 0 2.241 2.241 0 0 1-.545-.5 5.976 5.976 0 0 1-.747-1.15 4.19 4.19 0 0 1-.418-1.24l-2.076.672c.111.524.303 1.028.567 1.494z"></path></g><g><path fill="#fff" d="M109.22 234.302l1.315 1.539 3.368.62-1.882-2.24zm-6.325 4.63a5.079 5.079 0 0 0 1.038 2.024 4.369 4.369 0 0 0 1.942 1.375c.674.236 1.411.223 2.076-.038l-.65-2.546a1.39 1.39 0 0 1-1.575-.344 1.187 1.187 0 0 1-.291-.926 1.807 1.807 0 0 1 1.628-1.397c.338.017.653.177.866.441.376.455.415 1.101.097 1.598l2.412 1.046a2.987 2.987 0 0 0 .366-2.046 4.347 4.347 0 0 0-1.06-2.129 4.96 4.96 0 0 0-1.83-1.396 3.787 3.787 0 0 0-2.031-.3 3.771 3.771 0 0 0-2.988 2.577 3.78 3.78 0 0 0 0 2.062z"></path></g><g><path fill="#fff" d="M59.887 199.531l2.098 2.42-7.177 6.13-2.068-2.419z"></path></g><g><path fill="#fff" d="M62.949 203.116l2.068 2.42-7.17 6.13-2.068-2.42z"></path></g><g><path fill="#fff" d="M66.018 206.708l2.069 2.42-7.177 6.13-2.069-2.419z"></path></g><g><path fill="#fff" d="M65.196 220.165a5.288 5.288 0 0 1-.567-1.493l2.069-.672c.08.431.223.85.425 1.24.2.413.45.799.747 1.15.151.197.336.366.545.5.1.07.236.07.336 0 .09-.082.097-.194 0-.359a7.02 7.02 0 0 0-.455-.747 12.363 12.363 0 0 1-.792-1.351 2.427 2.427 0 0 1-.224-1.27c.068-.504.337-.96.747-1.262.349-.306.791-.485 1.254-.508a2.943 2.943 0 0 1 1.494.396 5.467 5.467 0 0 1 1.59 1.344c.363.414.68.865.95 1.345.243.414.427.862.544 1.329l-2.068.672a4.31 4.31 0 0 0-.979-1.972c-.433-.5-.746-.68-.91-.53-.165.15-.098.202 0 .366.128.26.276.509.44.747.28.433.53.884.747 1.352.182.397.256.834.216 1.27a1.927 1.927 0 0 1-.746 1.261c-.345.296-.779.47-1.233.493-.524 0-1.04-.14-1.493-.403a5.743 5.743 0 0 1-1.613-1.367 8.311 8.311 0 0 1-1.024-1.53z"></path></g><g><path fill="#fff" d="M73.187 229.187a3.808 3.808 0 0 1-1.493-1.173 3.465 3.465 0 0 1-.979-2.3 2.83 2.83 0 0 1 1.165-2.09l1.434-1.233-.657-.747 1.695-1.441.658.746 1.568-1.344 1.979 2.315-1.568 1.345.978 1.15-1.688 1.441-.986-1.143-1.411 1.203a.747.747 0 0 0-.291.478.627.627 0 0 0 .156.47c.158.19.368.328.605.396z"></path></g><g><path fill="#fff" d="M78.415 231.703zm0 0a1.158 1.158 0 0 1-1.128-1.314c.08-.377.292-.714.598-.948a1.56 1.56 0 0 1 1.03-.441c.33.007.641.157.852.41.218.248.316.578.269.904-.067.381-.279.72-.59.949a1.56 1.56 0 0 1-1.031.44zm-3.734-.858a4.802 4.802 0 0 0 1.045 1.994 4.906 4.906 0 0 0 1.815 1.366 3.734 3.734 0 0 0 2.024.277 3.63 3.63 0 0 0 1.86-.874 3.63 3.63 0 0 0 1.187-3.734 4.96 4.96 0 0 0-1.075-2.002 4.855 4.855 0 0 0-1.8-1.359 3.734 3.734 0 0 0-2.024-.284 3.786 3.786 0 0 0-2.987 2.57 3.801 3.801 0 0 0-.045 2.046z"></path></g><g><path fill="#fff" d="M84.539 238.873a1.083 1.083 0 0 1-.881-.403 1.098 1.098 0 0 1-.277-.904c.067-.38.278-.72.59-.949a1.56 1.56 0 0 1 1.038-.44c.33 0 .642.148.852.403.22.25.317.583.269.911a1.576 1.576 0 0 1-.598.949 1.546 1.546 0 0 1-1.03.433zm4.443-1.62a3.593 3.593 0 0 0-.799-1.659 2.54 2.54 0 0 0-1.882-1.053l.463-.395-1.882-2.204-7.595 6.49 1.98 2.315 2.367-2.023c-.01.688.26 1.35.747 1.837.396.476.912.839 1.493 1.053a3.33 3.33 0 0 0 1.86.12 4.144 4.144 0 0 0 1.844-.942c.54-.45.961-1.028 1.225-1.68.236-.59.298-1.235.18-1.86z"></path></g><g><path fill="#fff" d="M95.24 245.124a3.353 3.353 0 0 1-1.351 2.24l-3.196 2.733-1.98-2.315 2.794-2.39c.642-.552.746-1.053.38-1.493a1.068 1.068 0 0 0-.814-.403c-.4.032-.777.207-1.06.493l-2.636 2.24-1.98-2.315 5.61-4.787 1.881 2.203-.553.47c.401.028.791.143 1.143.336.364.208.69.475.963.792.554.593.842 1.386.8 2.196z"></path></g><g><path fill="#fff" d="M98.071 245.81c.074.982.78 1.8 1.74 2.017.435.06.875-.073 1.202-.366.319-.269.5-.666.493-1.083a2.001 2.001 0 0 0-.552-1.284 1.935 1.935 0 0 0-1.195-.747 1.494 1.494 0 0 0-1.688 1.441zm-6.52 5.296l1.98 2.315 5.608-4.795-1.98-2.315z"></path></g><g><path fill="#fff" d="M98.347 256.169a1.008 1.008 0 0 1-.515-.329.814.814 0 0 1-.217-.515.508.508 0 0 1 .202-.418c.329-.269.672-.172 1.075.299l.486.575-.388.336a1.023 1.023 0 0 1-.643.052zm5.183-1.27a4.48 4.48 0 0 0-1.187-2.845 7.37 7.37 0 0 0-1.33-1.21 5.303 5.303 0 0 0-1.493-.747l-.904 2.047c.32.074.623.206.896.388.278.187.53.41.747.665.538.634.62 1.172.247 1.62l-.8-.933a4.6 4.6 0 0 0-2.076-1.561 1.882 1.882 0 0 0-1.807.44 2.24 2.24 0 0 0-.68 1.001 2.18 2.18 0 0 0 0 1.24c.142.497.398.955.747 1.337a2.084 2.084 0 0 0 2.196.866l-.747.635 1.837 2.15 2.988-2.576a3.338 3.338 0 0 0 1.366-2.517z"></path></g></g></g></g></svg> 